<mxfile host="Electron" agent="Mozilla/5.0 (Windows NT 10.0; Win64; x64) AppleWebKit/537.36 (KHTML, like Gecko) draw.io/24.7.17 Chrome/128.0.6613.36 Electron/32.0.1 Safari/537.36" version="24.7.17">
  <diagram name="플로우차트 수정할거" id="DIRKrfqhAekvLwNsNDgP">
    <mxGraphModel dx="1434" dy="-1494" grid="1" gridSize="10" guides="1" tooltips="1" connect="1" arrows="1" fold="1" page="1" pageScale="1" pageWidth="827" pageHeight="1169" math="0" shadow="0">
      <root>
        <mxCell id="0" />
        <mxCell id="1" parent="0" />
        <UserObject label="&lt;table xmlns=&quot;http://www.w3.org/1999/xhtml&quot; cellspacing=&quot;0&quot; cellpadding=&quot;0&quot; dir=&quot;ltr&quot; border=&quot;1&quot; style=&quot;table-layout:fixed;font-size:11pt;font-family:Calibri;width:0px;border-collapse:collapse;border:none&quot; data-sheets-root=&quot;1&quot; data-sheets-baot=&quot;1&quot;&gt;&lt;colgroup&gt;&lt;col width=&quot;80&quot;&gt;&lt;col width=&quot;108&quot;&gt;&lt;col width=&quot;103&quot;&gt;&lt;col width=&quot;113&quot;&gt;&lt;col width=&quot;156&quot;&gt;&lt;col width=&quot;444&quot;&gt;&lt;col width=&quot;57&quot;&gt;&lt;/colgroup&gt;&lt;tbody&gt;&lt;tr style=&quot;height:30px;&quot;&gt;&lt;td style=&quot;border-top:1px solid #000000;border-right:1px solid #000000;border-bottom:1px solid #000000;border-left:1px solid #000000;overflow:hidden;padding:0px 3px 0px 3px;vertical-align:middle;background-color:#0c7dff;color:#ffffff;text-align:center;&quot;&gt;대메뉴&lt;/td&gt;&lt;td style=&quot;border-top:1px solid #000000;border-right:1px solid #000000;border-bottom:1px solid #000000;overflow:hidden;padding:0px 3px 0px 3px;vertical-align:middle;background-color:#0c7dff;color:#ffffff;text-align:center;&quot;&gt;중메뉴&lt;/td&gt;&lt;td style=&quot;border-top:1px solid #000000;border-right:1px solid #000000;border-bottom:1px solid #000000;overflow:hidden;padding:0px 3px 0px 3px;vertical-align:middle;background-color:#0c7dff;color:#ffffff;text-align:center;&quot;&gt;소메뉴&lt;/td&gt;&lt;td style=&quot;border-top:1px solid #000000;border-right:1px solid #000000;border-bottom:1px solid #000000;overflow:hidden;padding:0px 3px 0px 3px;vertical-align:middle;background-color:#0c7dff;color:#ffffff;text-align:center;&quot;&gt;Screen ID&lt;/td&gt;&lt;td style=&quot;border-top:1px solid #000000;border-right:1px solid #000000;border-bottom:1px solid #000000;overflow:hidden;padding:0px 3px 0px 3px;vertical-align:middle;background-color:#0c7dff;color:#ffffff;text-align:center;&quot;&gt;Pagetitle&lt;/td&gt;&lt;td style=&quot;border-top:1px solid #000000;border-right:1px solid #000000;border-bottom:1px solid #000000;overflow:hidden;padding:0px 3px 0px 3px;vertical-align:middle;background-color:#0c7dff;color:#ffffff;text-align:center;&quot;&gt;Description&lt;/td&gt;&lt;td style=&quot;border-top:1px solid #000000;border-right:1px solid #000000;border-bottom:1px solid #000000;overflow:hidden;padding:0px 3px 0px 3px;vertical-align:middle;background-color:#0c7dff;color:#ffffff;text-align:center;&quot;&gt;비고&lt;/td&gt;&lt;/tr&gt;&lt;tr style=&quot;height:30px;&quot;&gt;&lt;td style=&quot;border-right:1px solid #000000;border-bottom:1px solid #000000;border-left:1px solid #000000;overflow:hidden;padding:0px 3px 0px 3px;vertical-align:middle;text-align:center;&quot;&gt;로그인&lt;/td&gt;&lt;td style=&quot;border-right:1px solid #000000;border-bottom:1px solid #000000;overflow:hidden;padding:0px 3px 0px 3px;vertical-align:middle;&quot;&gt;&lt;/td&gt;&lt;td style=&quot;border-right:1px solid #000000;border-bottom:1px solid #000000;overflow:hidden;padding:0px 3px 0px 3px;vertical-align:middle;&quot;&gt;&lt;/td&gt;&lt;td style=&quot;border-right:1px solid #000000;border-bottom:1px solid #000000;overflow:hidden;padding:0px 3px 0px 3px;vertical-align:middle;text-align:center;&quot;&gt;UI-A-1011&lt;/td&gt;&lt;td style=&quot;border-right:1px solid #000000;border-bottom:1px solid #000000;overflow:hidden;padding:0px 3px 0px 3px;vertical-align:middle;text-align:center;&quot;&gt;로그인&lt;/td&gt;&lt;td style=&quot;border-right:1px solid #000000;border-bottom:1px solid #000000;overflow:hidden;padding:0px 3px 0px 3px;vertical-align:middle;text-align:center;&quot;&gt;로그인 페이지&lt;/td&gt;&lt;td style=&quot;border-right:1px solid #000000;border-bottom:1px solid #000000;overflow:hidden;padding:0px 3px 0px 3px;vertical-align:middle;&quot;&gt;&lt;/td&gt;&lt;/tr&gt;&lt;tr style=&quot;height:30px;&quot;&gt;&lt;td style=&quot;border-right:1px solid #000000;border-bottom:1px solid #000000;border-left:1px solid #000000;overflow:hidden;padding:0px 3px 0px 3px;vertical-align:middle;text-align:center;&quot;&gt;회원가입&lt;/td&gt;&lt;td style=&quot;border-right:1px solid #000000;border-bottom:1px solid #000000;overflow:hidden;padding:0px 3px 0px 3px;vertical-align:middle;&quot;&gt;&lt;/td&gt;&lt;td style=&quot;border-right:1px solid #000000;border-bottom:1px solid #000000;overflow:hidden;padding:0px 3px 0px 3px;vertical-align:middle;&quot;&gt;&lt;/td&gt;&lt;td style=&quot;border-right:1px solid #000000;border-bottom:1px solid #000000;overflow:hidden;padding:0px 3px 0px 3px;vertical-align:middle;text-align:center;&quot;&gt;UI-A-1012&lt;/td&gt;&lt;td style=&quot;border-right:1px solid #000000;border-bottom:1px solid #000000;overflow:hidden;padding:0px 3px 0px 3px;vertical-align:middle;text-align:center;&quot;&gt;회원가입&lt;/td&gt;&lt;td style=&quot;border-right:1px solid #000000;border-bottom:1px solid #000000;overflow:hidden;padding:0px 3px 0px 3px;vertical-align:middle;text-align:center;&quot;&gt;회원가입 페이지&lt;/td&gt;&lt;td style=&quot;border-right:1px solid #000000;border-bottom:1px solid #000000;overflow:hidden;padding:0px 3px 0px 3px;vertical-align:middle;&quot;&gt;&lt;/td&gt;&lt;/tr&gt;&lt;tr style=&quot;height:30px;&quot;&gt;&lt;td style=&quot;border-right:1px solid #000000;border-bottom:1px solid #000000;border-left:1px solid #000000;overflow:hidden;padding:0px 3px 0px 3px;vertical-align:middle;font-family:Malgun Gothic;font-weight:normal;text-align:center;&quot;&gt;홈&lt;/td&gt;&lt;td style=&quot;border-right:1px solid #000000;border-bottom:1px solid #000000;overflow:hidden;padding:0px 3px 0px 3px;vertical-align:middle;&quot;&gt;&lt;/td&gt;&lt;td style=&quot;border-right:1px solid #000000;border-bottom:1px solid #000000;overflow:hidden;padding:0px 3px 0px 3px;vertical-align:middle;&quot;&gt;&lt;/td&gt;&lt;td style=&quot;border-right:1px solid #000000;border-bottom:1px solid #000000;overflow:hidden;padding:0px 3px 0px 3px;vertical-align:middle;text-align:center;&quot;&gt;UI-A-1013&lt;/td&gt;&lt;td style=&quot;border-right:1px solid #000000;border-bottom:1px solid #000000;overflow:hidden;padding:0px 3px 0px 3px;vertical-align:middle;text-align:center;&quot;&gt;홈&lt;/td&gt;&lt;td style=&quot;border-right:1px solid #000000;border-bottom:1px solid #000000;overflow:hidden;padding:0px 3px 0px 3px;vertical-align:middle;text-align:center;&quot;&gt;홈 페이지&lt;/td&gt;&lt;td style=&quot;border-right:1px solid #000000;border-bottom:1px solid #000000;overflow:hidden;padding:0px 3px 0px 3px;vertical-align:middle;&quot;&gt;&lt;/td&gt;&lt;/tr&gt;&lt;tr style=&quot;height:30px;&quot;&gt;&lt;td style=&quot;border-right:1px solid #000000;border-bottom:1px solid #000000;border-left:1px solid #000000;overflow:hidden;padding:0px 3px 0px 3px;vertical-align:middle;font-family:Malgun Gothic;font-weight:normal;text-align:center;&quot; rowspan=&quot;2&quot; colspan=&quot;1&quot;&gt;&lt;span&gt;&lt;div style=&quot;max-height:60px&quot;&gt;펀딩&lt;/div&gt;&lt;/span&gt;&lt;/td&gt;&lt;td style=&quot;border-right:1px solid #000000;border-bottom:1px solid #000000;overflow:hidden;padding:0px 3px 0px 3px;vertical-align:middle;text-align:center;&quot;&gt;인기&lt;/td&gt;&lt;td style=&quot;border-right:1px solid #000000;border-bottom:1px solid #000000;overflow:hidden;padding:0px 3px 0px 3px;vertical-align:middle;&quot; rowspan=&quot;2&quot; colspan=&quot;1&quot;&gt;&lt;span&gt;&lt;div style=&quot;max-height:60px&quot;&gt;&lt;/div&gt;&lt;/span&gt;&lt;/td&gt;&lt;td style=&quot;border-right:1px solid #000000;border-bottom:1px solid #000000;overflow:hidden;padding:0px 3px 0px 3px;vertical-align:middle;text-align:center;&quot;&gt;UI-B-1011&lt;/td&gt;&lt;td style=&quot;border-right:1px solid #000000;border-bottom:1px solid #000000;overflow:hidden;padding:0px 3px 0px 3px;vertical-align:middle;text-align:center;&quot;&gt;펀딩&amp;gt;인기&lt;/td&gt;&lt;td style=&quot;border-right:1px solid #000000;border-bottom:1px solid #000000;overflow:hidden;padding:0px 3px 0px 3px;vertical-align:middle;text-align:center;&quot;&gt;장르별로 많이 펀딩된 순으로 펀딩 표시&lt;/td&gt;&lt;td style=&quot;border-right:1px solid #000000;border-bottom:1px solid #000000;overflow:hidden;padding:0px 3px 0px 3px;vertical-align:middle;&quot; rowspan=&quot;2&quot; colspan=&quot;1&quot;&gt;&lt;span&gt;&lt;div style=&quot;max-height:60px&quot;&gt;&lt;/div&gt;&lt;/span&gt;&lt;/td&gt;&lt;/tr&gt;&lt;tr style=&quot;height:30px;&quot;&gt;&lt;td style=&quot;border-right:1px solid #000000;border-bottom:1px solid #000000;overflow:hidden;padding:0px 3px 0px 3px;vertical-align:middle;text-align:center;&quot;&gt;신규&lt;/td&gt;&lt;td style=&quot;border-right:1px solid #000000;border-bottom:1px solid #000000;overflow:hidden;padding:0px 3px 0px 3px;vertical-align:middle;text-align:center;&quot;&gt;UI-B-1012&lt;/td&gt;&lt;td style=&quot;border-right:1px solid #000000;border-bottom:1px solid #000000;overflow:hidden;padding:0px 3px 0px 3px;vertical-align:middle;text-align:center;&quot;&gt;펀딩&amp;gt;신규&lt;/td&gt;&lt;td style=&quot;border-right:1px solid #000000;border-bottom:1px solid #000000;overflow:hidden;padding:0px 3px 0px 3px;vertical-align:middle;text-align:center;&quot;&gt;1시간 주기로 신규 등록된 펀딩 표시&lt;/td&gt;&lt;/tr&gt;&lt;tr style=&quot;height:30px;&quot;&gt;&lt;td style=&quot;border-right:1px solid #000000;border-bottom:1px solid #000000;border-left:1px solid #000000;overflow:hidden;padding:0px 3px 0px 3px;vertical-align:middle;font-family:Malgun Gothic;font-weight:normal;text-align:center;&quot; rowspan=&quot;2&quot; colspan=&quot;1&quot;&gt;&lt;span&gt;&lt;div style=&quot;max-height:60px&quot;&gt;프로젝트&lt;/div&gt;&lt;/span&gt;&lt;/td&gt;&lt;td style=&quot;border-right:1px solid #000000;border-bottom:1px solid #000000;overflow:hidden;padding:0px 3px 0px 3px;vertical-align:middle;text-align:center;&quot;&gt;참가하기&lt;/td&gt;&lt;td style=&quot;border-right:1px solid #000000;border-bottom:1px solid #000000;overflow:hidden;padding:0px 3px 0px 3px;vertical-align:middle;&quot; rowspan=&quot;2&quot; colspan=&quot;1&quot;&gt;&lt;span&gt;&lt;div style=&quot;max-height:60px&quot;&gt;&lt;/div&gt;&lt;/span&gt;&lt;/td&gt;&lt;td style=&quot;border-right:1px solid #000000;border-bottom:1px solid #000000;overflow:hidden;padding:0px 3px 0px 3px;vertical-align:middle;text-align:center;&quot;&gt;UI-C-1011&lt;/td&gt;&lt;td style=&quot;border-right:1px solid #000000;border-bottom:1px solid #000000;overflow:hidden;padding:0px 3px 0px 3px;vertical-align:middle;text-align:center;&quot;&gt;프로젝트&amp;gt;참가하기&lt;/td&gt;&lt;td style=&quot;border-right:1px solid #000000;border-bottom:1px solid #000000;overflow:hidden;padding:0px 3px 0px 3px;vertical-align:middle;text-align:center;&quot;&gt;모집 등록한 프로젝트 장르별 표시&lt;/td&gt;&lt;td style=&quot;border-right:1px solid #000000;border-bottom:1px solid #000000;overflow:hidden;padding:0px 3px 0px 3px;vertical-align:middle;&quot; rowspan=&quot;2&quot; colspan=&quot;1&quot;&gt;&lt;span&gt;&lt;div style=&quot;max-height:60px&quot;&gt;&lt;/div&gt;&lt;/span&gt;&lt;/td&gt;&lt;/tr&gt;&lt;tr style=&quot;height:30px;&quot;&gt;&lt;td style=&quot;border-right:1px solid #000000;border-bottom:1px solid #000000;overflow:hidden;padding:0px 3px 0px 3px;vertical-align:middle;text-align:center;&quot;&gt;모집하기&lt;/td&gt;&lt;td style=&quot;border-right:1px solid #000000;border-bottom:1px solid #000000;overflow:hidden;padding:0px 3px 0px 3px;vertical-align:middle;text-align:center;&quot;&gt;UI-C-1012&lt;/td&gt;&lt;td style=&quot;border-right:1px solid #000000;border-bottom:1px solid #000000;overflow:hidden;padding:0px 3px 0px 3px;vertical-align:middle;text-align:center;&quot;&gt;프로젝트&amp;gt;모집하기&lt;/td&gt;&lt;td style=&quot;border-right:1px solid #000000;border-bottom:1px solid #000000;overflow:hidden;padding:0px 3px 0px 3px;vertical-align:middle;text-align:center;&quot;&gt;모집 안내 페이지 표시&lt;/td&gt;&lt;/tr&gt;&lt;tr style=&quot;height:30px;&quot;&gt;&lt;td style=&quot;border-right:1px solid #000000;border-bottom:1px solid #000000;border-left:1px solid #000000;overflow:hidden;padding:0px 3px 0px 3px;vertical-align:middle;font-family:Malgun Gothic;font-weight:normal;text-align:center;&quot; rowspan=&quot;4&quot; colspan=&quot;1&quot;&gt;&lt;span&gt;&lt;div style=&quot;max-height:120px&quot;&gt;커뮤니티&lt;/div&gt;&lt;/span&gt;&lt;/td&gt;&lt;td style=&quot;border-right:1px solid #000000;border-bottom:1px solid #000000;overflow:hidden;padding:0px 3px 0px 3px;vertical-align:middle;text-align:center;&quot;&gt;공연후기&lt;/td&gt;&lt;td style=&quot;border-right:1px solid #000000;border-bottom:1px solid #000000;overflow:hidden;padding:0px 3px 0px 3px;vertical-align:middle;&quot; rowspan=&quot;4&quot; colspan=&quot;1&quot;&gt;&lt;span&gt;&lt;div style=&quot;max-height:120px&quot;&gt;&lt;/div&gt;&lt;/span&gt;&lt;/td&gt;&lt;td style=&quot;border-right:1px solid #000000;border-bottom:1px solid #000000;overflow:hidden;padding:0px 3px 0px 3px;vertical-align:middle;text-align:center;&quot;&gt;UI-D-1011&lt;/td&gt;&lt;td style=&quot;border-right:1px solid #000000;border-bottom:1px solid #000000;overflow:hidden;padding:0px 3px 0px 3px;vertical-align:middle;text-align:center;&quot;&gt;커뮤니티&amp;gt;공연후기&lt;/td&gt;&lt;td style=&quot;border-right:1px solid #000000;border-bottom:1px solid #000000;overflow:hidden;padding:0px 3px 0px 3px;vertical-align:middle;text-align:center;&quot;&gt;회원들이 쓴 공연후기글들을 표시&lt;/td&gt;&lt;td style=&quot;border-right:1px solid #000000;border-bottom:1px solid #000000;overflow:hidden;padding:0px 3px 0px 3px;vertical-align:middle;&quot; rowspan=&quot;4&quot; colspan=&quot;1&quot;&gt;&lt;span&gt;&lt;div style=&quot;max-height:120px&quot;&gt;&lt;/div&gt;&lt;/span&gt;&lt;/td&gt;&lt;/tr&gt;&lt;tr style=&quot;height:30px;&quot;&gt;&lt;td style=&quot;border-right:1px solid #000000;border-bottom:1px solid #000000;overflow:hidden;padding:0px 3px 0px 3px;vertical-align:middle;text-align:center;&quot;&gt;작품이야기&lt;/td&gt;&lt;td style=&quot;border-right:1px solid #000000;border-bottom:1px solid #000000;overflow:hidden;padding:0px 3px 0px 3px;vertical-align:middle;text-align:center;&quot;&gt;UI-D-1012&lt;/td&gt;&lt;td style=&quot;border-right:1px solid #000000;border-bottom:1px solid #000000;overflow:hidden;padding:0px 3px 0px 3px;vertical-align:middle;text-align:center;&quot;&gt;커뮤니티&amp;gt;작품이야기&lt;/td&gt;&lt;td style=&quot;border-right:1px solid #000000;border-bottom:1px solid #000000;overflow:hidden;padding:0px 3px 0px 3px;vertical-align:middle;text-align:center;&quot;&gt;전문가들이 펀딩 홍보를 목적으로 쓴 글들 표시&lt;/td&gt;&lt;/tr&gt;&lt;tr style=&quot;height:30px;&quot;&gt;&lt;td style=&quot;border-right:1px solid #000000;border-bottom:1px solid #000000;overflow:hidden;padding:0px 3px 0px 3px;vertical-align:middle;text-align:center;&quot;&gt;자유게시판&lt;/td&gt;&lt;td style=&quot;border-right:1px solid #000000;border-bottom:1px solid #000000;overflow:hidden;padding:0px 3px 0px 3px;vertical-align:middle;text-align:center;&quot;&gt;UI-D-1013&lt;/td&gt;&lt;td style=&quot;border-right:1px solid #000000;border-bottom:1px solid #000000;overflow:hidden;padding:0px 3px 0px 3px;vertical-align:middle;text-align:center;&quot;&gt;커뮤니티&amp;gt;자유게시판&lt;/td&gt;&lt;td style=&quot;border-right:1px solid #000000;border-bottom:1px solid #000000;overflow:hidden;padding:0px 3px 0px 3px;vertical-align:middle;text-align:center;&quot;&gt;회원들이 자유로운 커뮤니케이션 목적으로 쓴 글들 표시&lt;/td&gt;&lt;/tr&gt;&lt;tr style=&quot;height:30px;&quot;&gt;&lt;td style=&quot;border-right:1px solid #000000;border-bottom:1px solid #000000;overflow:hidden;padding:0px 3px 0px 3px;vertical-align:middle;text-align:center;&quot;&gt;정보공유&lt;/td&gt;&lt;td style=&quot;border-right:1px solid #000000;border-bottom:1px solid #000000;overflow:hidden;padding:0px 3px 0px 3px;vertical-align:middle;text-align:center;&quot;&gt;UI-D-1014&lt;/td&gt;&lt;td style=&quot;border-right:1px solid #000000;border-bottom:1px solid #000000;overflow:hidden;padding:0px 3px 0px 3px;vertical-align:middle;text-align:center;&quot;&gt;커뮤니티&amp;gt;정보공유&lt;/td&gt;&lt;td style=&quot;border-right:1px solid #000000;border-bottom:1px solid #000000;overflow:hidden;padding:0px 3px 0px 3px;vertical-align:middle;text-align:center;&quot;&gt;회원들의 정보 공유를 목적으로 쓴 글들 표시&lt;/td&gt;&lt;/tr&gt;&lt;tr style=&quot;height:30px;&quot;&gt;&lt;td style=&quot;border-right:1px solid #000000;border-bottom:1px solid #000000;border-left:1px solid #000000;overflow:hidden;padding:0px 3px 0px 3px;vertical-align:middle;font-family:Malgun Gothic;font-weight:normal;text-align:center;&quot; rowspan=&quot;2&quot; colspan=&quot;1&quot;&gt;&lt;span&gt;&lt;div style=&quot;max-height:82px&quot;&gt;마이페이지&lt;/div&gt;&lt;/span&gt;&lt;/td&gt;&lt;td style=&quot;border-right:1px solid #000000;border-bottom:1px solid #000000;overflow:hidden;padding:0px 3px 0px 3px;vertical-align:middle;text-align:center;&quot;&gt;일반&lt;/td&gt;&lt;td style=&quot;border-right:1px solid #000000;border-bottom:1px solid #000000;overflow:hidden;padding:0px 3px 0px 3px;vertical-align:middle;text-align:center;&quot;&gt;내정보&lt;/td&gt;&lt;td style=&quot;border-right:1px solid #000000;border-bottom:1px solid #000000;overflow:hidden;padding:0px 3px 0px 3px;vertical-align:middle;text-align:center;&quot;&gt;UI-E-1011&lt;/td&gt;&lt;td style=&quot;border-right:1px solid #000000;border-bottom:1px solid #000000;overflow:hidden;padding:0px 3px 0px 3px;vertical-align:middle;text-align:center;&quot;&gt;마이페이지&amp;gt;일반&lt;/td&gt;&lt;td style=&quot;border-right:1px solid #000000;border-bottom:1px solid #000000;overflow:hidden;padding:0px 3px 0px 3px;vertical-align:middle;text-align:center;&quot;&gt;일반 회원들의 프로필, 펀딩 목록 표시&lt;/td&gt;&lt;td style=&quot;border-right:1px solid #000000;border-bottom:1px solid #000000;overflow:hidden;padding:0px 3px 0px 3px;vertical-align:middle;&quot; rowspan=&quot;2&quot; colspan=&quot;1&quot;&gt;&lt;span&gt;&lt;div style=&quot;max-height:82px&quot;&gt;&lt;/div&gt;&lt;/span&gt;&lt;/td&gt;&lt;/tr&gt;&lt;tr style=&quot;height:52px;&quot;&gt;&lt;td style=&quot;border-right:1px solid #000000;border-bottom:1px solid #000000;overflow:hidden;padding:0px 3px 0px 3px;vertical-align:middle;text-align:center;&quot;&gt;전문가&lt;/td&gt;&lt;td style=&quot;border-right:1px solid #000000;border-bottom:1px solid #000000;overflow:hidden;padding:0px 3px 0px 3px;vertical-align:middle;text-align:center;&quot;&gt;전문가정보&lt;/td&gt;&lt;td style=&quot;border-right:1px solid #000000;border-bottom:1px solid #000000;overflow:hidden;padding:0px 3px 0px 3px;vertical-align:middle;text-align:center;&quot;&gt;UI-E-1012&lt;/td&gt;&lt;td style=&quot;border-right:1px solid #000000;border-bottom:1px solid #000000;overflow:hidden;padding:0px 3px 0px 3px;vertical-align:middle;text-align:center;&quot;&gt;마이페이지&amp;gt;전문가&lt;/td&gt;&lt;td style=&quot;border-right:1px solid #000000;border-bottom:1px solid #000000;overflow:hidden;padding:0px 3px 0px 3px;vertical-align:middle;text-align:center;&quot;&gt;전문가 프로필, 참여중인 프로젝트 ,&lt;br&gt;내가만든 프로젝트 정보 표시&lt;/td&gt;&lt;/tr&gt;&lt;/tbody&gt;&lt;/table&gt;" link="&lt;table xmlns=&quot;http://www.w3.org/1999/xhtml&quot; cellspacing=&quot;0&quot; cellpadding=&quot;0&quot; dir=&quot;ltr&quot; border=&quot;1&quot; style=&quot;table-layout:fixed;font-size:11pt;font-family:Calibri;width:0px;border-collapse:collapse;border:none&quot; data-sheets-root=&quot;1&quot; data-sheets-baot=&quot;1&quot;&gt;&lt;colgroup&gt;&lt;col width=&quot;80&quot;&gt;&lt;col width=&quot;108&quot;&gt;&lt;col width=&quot;103&quot;&gt;&lt;col width=&quot;113&quot;&gt;&lt;col width=&quot;156&quot;&gt;&lt;col width=&quot;444&quot;&gt;&lt;col width=&quot;57&quot;&gt;&lt;/colgroup&gt;&lt;tbody&gt;&lt;tr style=&quot;height:30px;&quot;&gt;&lt;td style=&quot;border-top:1px solid #000000;border-right:1px solid #000000;border-bottom:1px solid #000000;border-left:1px solid #000000;overflow:hidden;padding:0px 3px 0px 3px;vertical-align:middle;background-color:#0c7dff;color:#ffffff;text-align:center;&quot;&gt;대메뉴&lt;/td&gt;&lt;td style=&quot;border-top:1px solid #000000;border-right:1px solid #000000;border-bottom:1px solid #000000;overflow:hidden;padding:0px 3px 0px 3px;vertical-align:middle;background-color:#0c7dff;color:#ffffff;text-align:center;&quot;&gt;중메뉴&lt;/td&gt;&lt;td style=&quot;border-top:1px solid #000000;border-right:1px solid #000000;border-bottom:1px solid #000000;overflow:hidden;padding:0px 3px 0px 3px;vertical-align:middle;background-color:#0c7dff;color:#ffffff;text-align:center;&quot;&gt;소메뉴&lt;/td&gt;&lt;td style=&quot;border-top:1px solid #000000;border-right:1px solid #000000;border-bottom:1px solid #000000;overflow:hidden;padding:0px 3px 0px 3px;vertical-align:middle;background-color:#0c7dff;color:#ffffff;text-align:center;&quot;&gt;Screen ID&lt;/td&gt;&lt;td style=&quot;border-top:1px solid #000000;border-right:1px solid #000000;border-bottom:1px solid #000000;overflow:hidden;padding:0px 3px 0px 3px;vertical-align:middle;background-color:#0c7dff;color:#ffffff;text-align:center;&quot;&gt;Pagetitle&lt;/td&gt;&lt;td style=&quot;border-top:1px solid #000000;border-right:1px solid #000000;border-bottom:1px solid #000000;overflow:hidden;padding:0px 3px 0px 3px;vertical-align:middle;background-color:#0c7dff;color:#ffffff;text-align:center;&quot;&gt;Description&lt;/td&gt;&lt;td style=&quot;border-top:1px solid #000000;border-right:1px solid #000000;border-bottom:1px solid #000000;overflow:hidden;padding:0px 3px 0px 3px;vertical-align:middle;background-color:#0c7dff;color:#ffffff;text-align:center;&quot;&gt;비고&lt;/td&gt;&lt;/tr&gt;&lt;tr style=&quot;height:30px;&quot;&gt;&lt;td style=&quot;border-right:1px solid #000000;border-bottom:1px solid #000000;border-left:1px solid #000000;overflow:hidden;padding:0px 3px 0px 3px;vertical-align:middle;text-align:center;&quot;&gt;로그인&lt;/td&gt;&lt;td style=&quot;border-right:1px solid #000000;border-bottom:1px solid #000000;overflow:hidden;padding:0px 3px 0px 3px;vertical-align:middle;&quot;&gt;&lt;/td&gt;&lt;td style=&quot;border-right:1px solid #000000;border-bottom:1px solid #000000;overflow:hidden;padding:0px 3px 0px 3px;vertical-align:middle;&quot;&gt;&lt;/td&gt;&lt;td style=&quot;border-right:1px solid #000000;border-bottom:1px solid #000000;overflow:hidden;padding:0px 3px 0px 3px;vertical-align:middle;text-align:center;&quot;&gt;UI-A-1011&lt;/td&gt;&lt;td style=&quot;border-right:1px solid #000000;border-bottom:1px solid #000000;overflow:hidden;padding:0px 3px 0px 3px;vertical-align:middle;text-align:center;&quot;&gt;로그인&lt;/td&gt;&lt;td style=&quot;border-right:1px solid #000000;border-bottom:1px solid #000000;overflow:hidden;padding:0px 3px 0px 3px;vertical-align:middle;text-align:center;&quot;&gt;로그인 페이지&lt;/td&gt;&lt;td style=&quot;border-right:1px solid #000000;border-bottom:1px solid #000000;overflow:hidden;padding:0px 3px 0px 3px;vertical-align:middle;&quot;&gt;&lt;/td&gt;&lt;/tr&gt;&lt;tr style=&quot;height:30px;&quot;&gt;&lt;td style=&quot;border-right:1px solid #000000;border-bottom:1px solid #000000;border-left:1px solid #000000;overflow:hidden;padding:0px 3px 0px 3px;vertical-align:middle;text-align:center;&quot;&gt;회원가입&lt;/td&gt;&lt;td style=&quot;border-right:1px solid #000000;border-bottom:1px solid #000000;overflow:hidden;padding:0px 3px 0px 3px;vertical-align:middle;&quot;&gt;&lt;/td&gt;&lt;td style=&quot;border-right:1px solid #000000;border-bottom:1px solid #000000;overflow:hidden;padding:0px 3px 0px 3px;vertical-align:middle;&quot;&gt;&lt;/td&gt;&lt;td style=&quot;border-right:1px solid #000000;border-bottom:1px solid #000000;overflow:hidden;padding:0px 3px 0px 3px;vertical-align:middle;text-align:center;&quot;&gt;UI-A-1012&lt;/td&gt;&lt;td style=&quot;border-right:1px solid #000000;border-bottom:1px solid #000000;overflow:hidden;padding:0px 3px 0px 3px;vertical-align:middle;text-align:center;&quot;&gt;회원가입&lt;/td&gt;&lt;td style=&quot;border-right:1px solid #000000;border-bottom:1px solid #000000;overflow:hidden;padding:0px 3px 0px 3px;vertical-align:middle;text-align:center;&quot;&gt;회원가입 페이지&lt;/td&gt;&lt;td style=&quot;border-right:1px solid #000000;border-bottom:1px solid #000000;overflow:hidden;padding:0px 3px 0px 3px;vertical-align:middle;&quot;&gt;&lt;/td&gt;&lt;/tr&gt;&lt;tr style=&quot;height:30px;&quot;&gt;&lt;td style=&quot;border-right:1px solid #000000;border-bottom:1px solid #000000;border-left:1px solid #000000;overflow:hidden;padding:0px 3px 0px 3px;vertical-align:middle;font-family:Malgun Gothic;font-weight:normal;text-align:center;&quot;&gt;홈&lt;/td&gt;&lt;td style=&quot;border-right:1px solid #000000;border-bottom:1px solid #000000;overflow:hidden;padding:0px 3px 0px 3px;vertical-align:middle;&quot;&gt;&lt;/td&gt;&lt;td style=&quot;border-right:1px solid #000000;border-bottom:1px solid #000000;overflow:hidden;padding:0px 3px 0px 3px;vertical-align:middle;&quot;&gt;&lt;/td&gt;&lt;td style=&quot;border-right:1px solid #000000;border-bottom:1px solid #000000;overflow:hidden;padding:0px 3px 0px 3px;vertical-align:middle;text-align:center;&quot;&gt;UI-A-1013&lt;/td&gt;&lt;td style=&quot;border-right:1px solid #000000;border-bottom:1px solid #000000;overflow:hidden;padding:0px 3px 0px 3px;vertical-align:middle;text-align:center;&quot;&gt;홈&lt;/td&gt;&lt;td style=&quot;border-right:1px solid #000000;border-bottom:1px solid #000000;overflow:hidden;padding:0px 3px 0px 3px;vertical-align:middle;text-align:center;&quot;&gt;홈 페이지&lt;/td&gt;&lt;td style=&quot;border-right:1px solid #000000;border-bottom:1px solid #000000;overflow:hidden;padding:0px 3px 0px 3px;vertical-align:middle;&quot;&gt;&lt;/td&gt;&lt;/tr&gt;&lt;tr style=&quot;height:30px;&quot;&gt;&lt;td style=&quot;border-right:1px solid #000000;border-bottom:1px solid #000000;border-left:1px solid #000000;overflow:hidden;padding:0px 3px 0px 3px;vertical-align:middle;font-family:Malgun Gothic;font-weight:normal;text-align:center;&quot; rowspan=&quot;2&quot; colspan=&quot;1&quot;&gt;&lt;span&gt;&lt;div style=&quot;max-height:60px&quot;&gt;펀딩&lt;/div&gt;&lt;/span&gt;&lt;/td&gt;&lt;td style=&quot;border-right:1px solid #000000;border-bottom:1px solid #000000;overflow:hidden;padding:0px 3px 0px 3px;vertical-align:middle;text-align:center;&quot;&gt;인기&lt;/td&gt;&lt;td style=&quot;border-right:1px solid #000000;border-bottom:1px solid #000000;overflow:hidden;padding:0px 3px 0px 3px;vertical-align:middle;&quot; rowspan=&quot;2&quot; colspan=&quot;1&quot;&gt;&lt;span&gt;&lt;div style=&quot;max-height:60px&quot;&gt;&lt;/div&gt;&lt;/span&gt;&lt;/td&gt;&lt;td style=&quot;border-right:1px solid #000000;border-bottom:1px solid #000000;overflow:hidden;padding:0px 3px 0px 3px;vertical-align:middle;text-align:center;&quot;&gt;UI-B-1011&lt;/td&gt;&lt;td style=&quot;border-right:1px solid #000000;border-bottom:1px solid #000000;overflow:hidden;padding:0px 3px 0px 3px;vertical-align:middle;text-align:center;&quot;&gt;펀딩&amp;gt;인기&lt;/td&gt;&lt;td style=&quot;border-right:1px solid #000000;border-bottom:1px solid #000000;overflow:hidden;padding:0px 3px 0px 3px;vertical-align:middle;text-align:center;&quot;&gt;장르별로 많이 펀딩된 순으로 펀딩 표시&lt;/td&gt;&lt;td style=&quot;border-right:1px solid #000000;border-bottom:1px solid #000000;overflow:hidden;padding:0px 3px 0px 3px;vertical-align:middle;&quot; rowspan=&quot;2&quot; colspan=&quot;1&quot;&gt;&lt;span&gt;&lt;div style=&quot;max-height:60px&quot;&gt;&lt;/div&gt;&lt;/span&gt;&lt;/td&gt;&lt;/tr&gt;&lt;tr style=&quot;height:30px;&quot;&gt;&lt;td style=&quot;border-right:1px solid #000000;border-bottom:1px solid #000000;overflow:hidden;padding:0px 3px 0px 3px;vertical-align:middle;text-align:center;&quot;&gt;신규&lt;/td&gt;&lt;td style=&quot;border-right:1px solid #000000;border-bottom:1px solid #000000;overflow:hidden;padding:0px 3px 0px 3px;vertical-align:middle;text-align:center;&quot;&gt;UI-B-1012&lt;/td&gt;&lt;td style=&quot;border-right:1px solid #000000;border-bottom:1px solid #000000;overflow:hidden;padding:0px 3px 0px 3px;vertical-align:middle;text-align:center;&quot;&gt;펀딩&amp;gt;신규&lt;/td&gt;&lt;td style=&quot;border-right:1px solid #000000;border-bottom:1px solid #000000;overflow:hidden;padding:0px 3px 0px 3px;vertical-align:middle;text-align:center;&quot;&gt;1시간 주기로 신규 등록된 펀딩 표시&lt;/td&gt;&lt;/tr&gt;&lt;tr style=&quot;height:30px;&quot;&gt;&lt;td style=&quot;border-right:1px solid #000000;border-bottom:1px solid #000000;border-left:1px solid #000000;overflow:hidden;padding:0px 3px 0px 3px;vertical-align:middle;font-family:Malgun Gothic;font-weight:normal;text-align:center;&quot; rowspan=&quot;2&quot; colspan=&quot;1&quot;&gt;&lt;span&gt;&lt;div style=&quot;max-height:60px&quot;&gt;프로젝트&lt;/div&gt;&lt;/span&gt;&lt;/td&gt;&lt;td style=&quot;border-right:1px solid #000000;border-bottom:1px solid #000000;overflow:hidden;padding:0px 3px 0px 3px;vertical-align:middle;text-align:center;&quot;&gt;참가하기&lt;/td&gt;&lt;td style=&quot;border-right:1px solid #000000;border-bottom:1px solid #000000;overflow:hidden;padding:0px 3px 0px 3px;vertical-align:middle;&quot; rowspan=&quot;2&quot; colspan=&quot;1&quot;&gt;&lt;span&gt;&lt;div style=&quot;max-height:60px&quot;&gt;&lt;/div&gt;&lt;/span&gt;&lt;/td&gt;&lt;td style=&quot;border-right:1px solid #000000;border-bottom:1px solid #000000;overflow:hidden;padding:0px 3px 0px 3px;vertical-align:middle;text-align:center;&quot;&gt;UI-C-1011&lt;/td&gt;&lt;td style=&quot;border-right:1px solid #000000;border-bottom:1px solid #000000;overflow:hidden;padding:0px 3px 0px 3px;vertical-align:middle;text-align:center;&quot;&gt;프로젝트&amp;gt;참가하기&lt;/td&gt;&lt;td style=&quot;border-right:1px solid #000000;border-bottom:1px solid #000000;overflow:hidden;padding:0px 3px 0px 3px;vertical-align:middle;text-align:center;&quot;&gt;모집 등록한 프로젝트 장르별 표시&lt;/td&gt;&lt;td style=&quot;border-right:1px solid #000000;border-bottom:1px solid #000000;overflow:hidden;padding:0px 3px 0px 3px;vertical-align:middle;&quot; rowspan=&quot;2&quot; colspan=&quot;1&quot;&gt;&lt;span&gt;&lt;div style=&quot;max-height:60px&quot;&gt;&lt;/div&gt;&lt;/span&gt;&lt;/td&gt;&lt;/tr&gt;&lt;tr style=&quot;height:30px;&quot;&gt;&lt;td style=&quot;border-right:1px solid #000000;border-bottom:1px solid #000000;overflow:hidden;padding:0px 3px 0px 3px;vertical-align:middle;text-align:center;&quot;&gt;모집하기&lt;/td&gt;&lt;td style=&quot;border-right:1px solid #000000;border-bottom:1px solid #000000;overflow:hidden;padding:0px 3px 0px 3px;vertical-align:middle;text-align:center;&quot;&gt;UI-C-1012&lt;/td&gt;&lt;td style=&quot;border-right:1px solid #000000;border-bottom:1px solid #000000;overflow:hidden;padding:0px 3px 0px 3px;vertical-align:middle;text-align:center;&quot;&gt;프로젝트&amp;gt;모집하기&lt;/td&gt;&lt;td style=&quot;border-right:1px solid #000000;border-bottom:1px solid #000000;overflow:hidden;padding:0px 3px 0px 3px;vertical-align:middle;text-align:center;&quot;&gt;모집 안내 페이지 표시&lt;/td&gt;&lt;/tr&gt;&lt;tr style=&quot;height:30px;&quot;&gt;&lt;td style=&quot;border-right:1px solid #000000;border-bottom:1px solid #000000;border-left:1px solid #000000;overflow:hidden;padding:0px 3px 0px 3px;vertical-align:middle;font-family:Malgun Gothic;font-weight:normal;text-align:center;&quot; rowspan=&quot;4&quot; colspan=&quot;1&quot;&gt;&lt;span&gt;&lt;div style=&quot;max-height:120px&quot;&gt;커뮤니티&lt;/div&gt;&lt;/span&gt;&lt;/td&gt;&lt;td style=&quot;border-right:1px solid #000000;border-bottom:1px solid #000000;overflow:hidden;padding:0px 3px 0px 3px;vertical-align:middle;text-align:center;&quot;&gt;공연후기&lt;/td&gt;&lt;td style=&quot;border-right:1px solid #000000;border-bottom:1px solid #000000;overflow:hidden;padding:0px 3px 0px 3px;vertical-align:middle;&quot; rowspan=&quot;4&quot; colspan=&quot;1&quot;&gt;&lt;span&gt;&lt;div style=&quot;max-height:120px&quot;&gt;&lt;/div&gt;&lt;/span&gt;&lt;/td&gt;&lt;td style=&quot;border-right:1px solid #000000;border-bottom:1px solid #000000;overflow:hidden;padding:0px 3px 0px 3px;vertical-align:middle;text-align:center;&quot;&gt;UI-D-1011&lt;/td&gt;&lt;td style=&quot;border-right:1px solid #000000;border-bottom:1px solid #000000;overflow:hidden;padding:0px 3px 0px 3px;vertical-align:middle;text-align:center;&quot;&gt;커뮤니티&amp;gt;공연후기&lt;/td&gt;&lt;td style=&quot;border-right:1px solid #000000;border-bottom:1px solid #000000;overflow:hidden;padding:0px 3px 0px 3px;vertical-align:middle;text-align:center;&quot;&gt;회원들이 쓴 공연후기글들을 표시&lt;/td&gt;&lt;td style=&quot;border-right:1px solid #000000;border-bottom:1px solid #000000;overflow:hidden;padding:0px 3px 0px 3px;vertical-align:middle;&quot; rowspan=&quot;4&quot; colspan=&quot;1&quot;&gt;&lt;span&gt;&lt;div style=&quot;max-height:120px&quot;&gt;&lt;/div&gt;&lt;/span&gt;&lt;/td&gt;&lt;/tr&gt;&lt;tr style=&quot;height:30px;&quot;&gt;&lt;td style=&quot;border-right:1px solid #000000;border-bottom:1px solid #000000;overflow:hidden;padding:0px 3px 0px 3px;vertical-align:middle;text-align:center;&quot;&gt;작품이야기&lt;/td&gt;&lt;td style=&quot;border-right:1px solid #000000;border-bottom:1px solid #000000;overflow:hidden;padding:0px 3px 0px 3px;vertical-align:middle;text-align:center;&quot;&gt;UI-D-1012&lt;/td&gt;&lt;td style=&quot;border-right:1px solid #000000;border-bottom:1px solid #000000;overflow:hidden;padding:0px 3px 0px 3px;vertical-align:middle;text-align:center;&quot;&gt;커뮤니티&amp;gt;작품이야기&lt;/td&gt;&lt;td style=&quot;border-right:1px solid #000000;border-bottom:1px solid #000000;overflow:hidden;padding:0px 3px 0px 3px;vertical-align:middle;text-align:center;&quot;&gt;전문가들이 펀딩 홍보를 목적으로 쓴 글들 표시&lt;/td&gt;&lt;/tr&gt;&lt;tr style=&quot;height:30px;&quot;&gt;&lt;td style=&quot;border-right:1px solid #000000;border-bottom:1px solid #000000;overflow:hidden;padding:0px 3px 0px 3px;vertical-align:middle;text-align:center;&quot;&gt;자유게시판&lt;/td&gt;&lt;td style=&quot;border-right:1px solid #000000;border-bottom:1px solid #000000;overflow:hidden;padding:0px 3px 0px 3px;vertical-align:middle;text-align:center;&quot;&gt;UI-D-1013&lt;/td&gt;&lt;td style=&quot;border-right:1px solid #000000;border-bottom:1px solid #000000;overflow:hidden;padding:0px 3px 0px 3px;vertical-align:middle;text-align:center;&quot;&gt;커뮤니티&amp;gt;자유게시판&lt;/td&gt;&lt;td style=&quot;border-right:1px solid #000000;border-bottom:1px solid #000000;overflow:hidden;padding:0px 3px 0px 3px;vertical-align:middle;text-align:center;&quot;&gt;회원들이 자유로운 커뮤니케이션 목적으로 쓴 글들 표시&lt;/td&gt;&lt;/tr&gt;&lt;tr style=&quot;height:30px;&quot;&gt;&lt;td style=&quot;border-right:1px solid #000000;border-bottom:1px solid #000000;overflow:hidden;padding:0px 3px 0px 3px;vertical-align:middle;text-align:center;&quot;&gt;정보공유&lt;/td&gt;&lt;td style=&quot;border-right:1px solid #000000;border-bottom:1px solid #000000;overflow:hidden;padding:0px 3px 0px 3px;vertical-align:middle;text-align:center;&quot;&gt;UI-D-1014&lt;/td&gt;&lt;td style=&quot;border-right:1px solid #000000;border-bottom:1px solid #000000;overflow:hidden;padding:0px 3px 0px 3px;vertical-align:middle;text-align:center;&quot;&gt;커뮤니티&amp;gt;정보공유&lt;/td&gt;&lt;td style=&quot;border-right:1px solid #000000;border-bottom:1px solid #000000;overflow:hidden;padding:0px 3px 0px 3px;vertical-align:middle;text-align:center;&quot;&gt;회원들의 정보 공유를 목적으로 쓴 글들 표시&lt;/td&gt;&lt;/tr&gt;&lt;tr style=&quot;height:30px;&quot;&gt;&lt;td style=&quot;border-right:1px solid #000000;border-bottom:1px solid #000000;border-left:1px solid #000000;overflow:hidden;padding:0px 3px 0px 3px;vertical-align:middle;font-family:Malgun Gothic;font-weight:normal;text-align:center;&quot; rowspan=&quot;2&quot; colspan=&quot;1&quot;&gt;&lt;span&gt;&lt;div style=&quot;max-height:82px&quot;&gt;마이페이지&lt;/div&gt;&lt;/span&gt;&lt;/td&gt;&lt;td style=&quot;border-right:1px solid #000000;border-bottom:1px solid #000000;overflow:hidden;padding:0px 3px 0px 3px;vertical-align:middle;text-align:center;&quot;&gt;일반&lt;/td&gt;&lt;td style=&quot;border-right:1px solid #000000;border-bottom:1px solid #000000;overflow:hidden;padding:0px 3px 0px 3px;vertical-align:middle;text-align:center;&quot;&gt;내정보&lt;/td&gt;&lt;td style=&quot;border-right:1px solid #000000;border-bottom:1px solid #000000;overflow:hidden;padding:0px 3px 0px 3px;vertical-align:middle;text-align:center;&quot;&gt;UI-E-1011&lt;/td&gt;&lt;td style=&quot;border-right:1px solid #000000;border-bottom:1px solid #000000;overflow:hidden;padding:0px 3px 0px 3px;vertical-align:middle;text-align:center;&quot;&gt;마이페이지&amp;gt;일반&lt;/td&gt;&lt;td style=&quot;border-right:1px solid #000000;border-bottom:1px solid #000000;overflow:hidden;padding:0px 3px 0px 3px;vertical-align:middle;text-align:center;&quot;&gt;일반 회원들의 프로필, 펀딩 목록 표시&lt;/td&gt;&lt;td style=&quot;border-right:1px solid #000000;border-bottom:1px solid #000000;overflow:hidden;padding:0px 3px 0px 3px;vertical-align:middle;&quot; rowspan=&quot;2&quot; colspan=&quot;1&quot;&gt;&lt;span&gt;&lt;div style=&quot;max-height:82px&quot;&gt;&lt;/div&gt;&lt;/span&gt;&lt;/td&gt;&lt;/tr&gt;&lt;tr style=&quot;height:52px;&quot;&gt;&lt;td style=&quot;border-right:1px solid #000000;border-bottom:1px solid #000000;overflow:hidden;padding:0px 3px 0px 3px;vertical-align:middle;text-align:center;&quot;&gt;전문가&lt;/td&gt;&lt;td style=&quot;border-right:1px solid #000000;border-bottom:1px solid #000000;overflow:hidden;padding:0px 3px 0px 3px;vertical-align:middle;text-align:center;&quot;&gt;전문가정보&lt;/td&gt;&lt;td style=&quot;border-right:1px solid #000000;border-bottom:1px solid #000000;overflow:hidden;padding:0px 3px 0px 3px;vertical-align:middle;text-align:center;&quot;&gt;UI-E-1012&lt;/td&gt;&lt;td style=&quot;border-right:1px solid #000000;border-bottom:1px solid #000000;overflow:hidden;padding:0px 3px 0px 3px;vertical-align:middle;text-align:center;&quot;&gt;마이페이지&amp;gt;전문가&lt;/td&gt;&lt;td style=&quot;border-right:1px solid #000000;border-bottom:1px solid #000000;overflow:hidden;padding:0px 3px 0px 3px;vertical-align:middle;text-align:center;&quot;&gt;전문가 프로필, 참여중인 프로젝트 ,&lt;br&gt;내가만든 프로젝트 정보 표시&lt;/td&gt;&lt;/tr&gt;&lt;/tbody&gt;&lt;/table&gt;" id="fpZ4hnHI2-g80MU5Ufzy-1">
          <mxCell style="text;whiteSpace=wrap;html=1;" vertex="1" parent="1">
            <mxGeometry x="530" y="2370" width="550" height="465" as="geometry" />
          </mxCell>
        </UserObject>
      </root>
    </mxGraphModel>
  </diagram>
</mxfile>
